<svg width="36" height="37" viewBox="0 0 36 37" fill="none" xmlns="http://www.w3.org/2000/svg">
<g clip-path="url(#clip0_189_468)">
<path d="M27.8219 19.9143L27.1289 19.4062L27.1095 19.4327L27.0921 19.4606L27.8219 19.9143ZM18.46 34.9748L17.7301 35.4285L18.46 36.6025L19.1898 35.4285L18.46 34.9748ZM9.09798 19.9143L9.82778 19.4606L9.81043 19.4327L9.79101 19.4062L9.09798 19.9143ZM28.515 20.4223C30.0268 18.36 30.9199 15.8143 30.9199 13.0625H29.2013C29.2013 15.4367 28.4321 17.6287 27.1289 19.4062L28.515 20.4223ZM19.1898 35.4285L28.5518 20.3679L27.0921 19.4606L17.7301 34.5212L19.1898 35.4285ZM8.36818 20.3679L17.7301 35.4285L19.1898 34.5212L9.82778 19.4606L8.36818 20.3679ZM6 13.0625C6 15.8143 6.89307 18.36 8.40496 20.4223L9.79101 19.4062C8.48788 17.6287 7.71862 15.4367 7.71862 13.0625H6ZM18.46 0.602539C11.5785 0.602539 6 6.18105 6 13.0625H7.71862C7.71862 7.13022 12.5277 2.32115 18.46 2.32115V0.602539ZM30.9199 13.0625C30.9199 6.18105 25.3414 0.602539 18.46 0.602539V2.32115C24.3923 2.32115 29.2013 7.13022 29.2013 13.0625H30.9199ZM22.3268 13.0625C22.3268 15.1981 20.5956 16.9294 18.46 16.9294V18.648C21.5447 18.648 24.0455 16.1472 24.0455 13.0625H22.3268ZM18.46 9.19561C20.5956 9.19561 22.3268 10.9269 22.3268 13.0625H24.0455C24.0455 9.97767 21.5447 7.477 18.46 7.477V9.19561ZM14.5931 13.0625C14.5931 10.9269 16.3243 9.19561 18.46 9.19561V7.477C15.3751 7.477 12.8745 9.97767 12.8745 13.0625H14.5931ZM18.46 16.9294C16.3243 16.9294 14.5931 15.1981 14.5931 13.0625H12.8745C12.8745 16.1472 15.3751 18.648 18.46 18.648V16.9294Z" fill="#01E4DB"/>
</g>
<defs>
<clipPath id="clip0_189_468">
<rect width="36" height="36" fill="white" transform="translate(0 0.602539)"/>
</clipPath>
</defs>
</svg>
