<svg width="25" height="25" viewBox="0 0 25 25" fill="none" xmlns="http://www.w3.org/2000/svg">
<mask id="path-1-inside-1_2379_185" fill="white">
<path d="M1.5 9.60254H23.5V20.6025C23.5 21.1548 23.0523 21.6025 22.5 21.6025H2.5C1.94772 21.6025 1.5 21.1548 1.5 20.6025V9.60254Z"/>
</mask>
<path d="M1.5 9.60254H23.5V20.6025C23.5 21.1548 23.0523 21.6025 22.5 21.6025H2.5C1.94772 21.6025 1.5 21.1548 1.5 20.6025V9.60254Z" stroke="black" stroke-width="4" mask="url(#path-1-inside-1_2379_185)"/>
<rect x="6.5" y="9.60254" width="2" height="11" fill="black"/>
<rect x="1.5" y="14.6025" width="20" height="2" fill="black"/>
<rect x="11.5" y="9.60254" width="2" height="10" fill="black"/>
<rect x="16.5" y="9.60254" width="2" height="10" fill="black"/>
<path fill-rule="evenodd" clip-rule="evenodd" d="M15.5 3.60254H9.5V4.60254C9.5 5.70711 8.60457 6.60254 7.5 6.60254C6.39543 6.60254 5.5 5.70711 5.5 4.60254V3.60254H2.5C1.94772 3.60254 1.5 4.05025 1.5 4.60254V9.60254H23.5V4.60254C23.5 4.05025 23.0523 3.60254 22.5 3.60254H19.5V4.60254C19.5 5.70711 18.6046 6.60254 17.5 6.60254C16.3954 6.60254 15.5 5.70711 15.5 4.60254V3.60254Z" fill="black"/>
<rect x="6.5" y="1.60254" width="2" height="4" rx="1" fill="black"/>
<rect x="16.5" y="1.60254" width="2" height="4" rx="1" fill="black"/>
</svg>
