<svg width="75" height="75" viewBox="0 0 75 75" fill="none" xmlns="http://www.w3.org/2000/svg">
<path d="M36.7969 15.3906C35 15.3906 33.5156 16.875 33.5156 18.6719C33.5156 20.4687 35 21.9531 36.7969 21.9531C38.5938 21.9531 40.0781 20.4687 40.0781 18.6719C40.0781 16.875 38.5938 15.3906 36.7969 15.3906Z" fill="#01E4DB"/>
<path d="M30.2344 34.5313C30.2344 36.3438 28.7656 37.8125 26.9531 37.8125C25.1406 37.8125 23.6719 36.3438 23.6719 34.5313C23.6719 32.7188 25.1406 31.25 26.9531 31.25C28.7656 31.25 30.2344 32.7188 30.2344 34.5313Z" fill="#01E4DB"/>
<path d="M46.0938 19.7656L44.1407 20.7031C43.9844 21.3281 43.6719 21.875 43.3594 22.4219L44.0626 24.4531L42.5001 26.0156L40.4688 25.3125C39.9219 25.625 39.3751 25.8594 38.7501 26.0156L37.8126 27.8906H35.6251L34.6876 25.9375C34.0626 25.7813 33.5157 25.5469 32.9688 25.2344L30.9376 25.9375L29.3751 24.375L30.0782 22.3438C29.7657 21.7969 29.5313 21.25 29.3751 20.625L27.4219 19.6875V17.5L29.3751 16.5625C29.5313 15.9375 29.7657 15.3906 30.0782 14.8438L29.4532 12.8125L31.0157 11.25L33.0469 11.9531C33.5938 11.6406 34.1407 11.4063 34.7657 11.25L35.7032 9.29688H37.8907L38.8282 11.1719C39.4532 11.3281 40.0001 11.5625 40.5469 11.875L42.5782 11.1719L44.1407 12.7344L43.4376 14.7656C43.7501 15.3125 43.9844 15.8594 44.1407 16.4844L46.0938 17.4219V19.7656ZM36.2501 35.625L34.2969 36.5625C34.1407 37.1875 33.9063 37.7344 33.5938 38.2813L34.2188 40.3125L32.6563 41.875L30.6251 41.1719C30.0782 41.4844 29.5313 41.7188 28.9063 41.875L28.0469 43.75H25.8594L24.9219 41.7969C24.2969 41.6406 23.7501 41.4063 23.2032 41.0938L21.1719 41.7188L19.6094 40.1563L20.3126 38.125C20.0001 37.5781 19.7657 37.0313 19.6094 36.4063L17.6563 35.4688V33.2813L19.6094 32.3438C19.7657 31.7188 20.0001 31.1719 20.3126 30.625L19.6094 28.5938L21.1719 27.0313L23.2032 27.7344C23.7501 27.4219 24.2969 27.1875 24.9219 27.0313L25.8594 25.0781H28.1251L29.0626 27.0313C29.6876 27.1875 30.2344 27.4219 30.7813 27.7344L32.8126 27.0313L34.3751 28.5938L33.6719 30.625C33.9844 31.1719 34.2188 31.7188 34.3751 32.3438L36.3282 33.2813L36.2501 35.625ZM63.2813 38.5156L57.8907 29.1406V28.75C58.2032 20.1563 53.8282 12.1094 46.4063 7.65625C38.9844 3.28125 29.8438 3.28125 22.4219 7.65625C15.0001 12.0312 10.6251 20.1563 10.9376 28.75C10.9376 36.1719 14.2969 43.125 20.1563 47.6563V67.4219H44.8438V58.0469H48.6719C51.1719 58.0469 53.5157 57.0312 55.2344 55.3125C56.9532 53.5156 57.8907 51.1719 57.8907 48.6719V43.9844H61.3282C63.3594 43.75 65.1563 41.4062 63.2813 38.5156Z" fill="#01E4DB"/>
</svg>
