<svg width="75" height="75" viewBox="0 0 75 75" fill="none" xmlns="http://www.w3.org/2000/svg">
<path d="M46.6407 31.875H39.6875C36.7188 31.875 34.297 34.2187 34.297 37.1875V42.9687H30.7813V38.3594C30.7813 36.7187 30.8594 34.6094 29.6876 33.2812C28.9844 32.5 28.2032 31.875 27.3438 31.25C26.7188 30.8594 26.0938 30.3906 25.6251 29.7656C25.3907 29.4531 25.2344 29.0625 25.0782 28.6719C26.0157 28.2812 27.0313 28.2031 27.9688 28.2812C28.4376 28.2812 28.8282 27.9688 28.8282 27.5C28.9063 27.0312 28.5938 26.6406 28.2032 26.4844C27.0313 26.3281 25.7813 26.4844 24.6094 26.875C24.6094 26.7187 24.6095 26.5625 24.5313 26.4844C24.4532 25.7812 24.6094 25.0781 24.7657 24.375C25.3907 22.7344 26.9532 22.0312 28.4376 21.4844C28.672 21.4062 28.9844 21.3281 29.375 21.25L29.6095 21.1719H29.6876C30.0782 21.25 30.3907 21.3281 30.7032 21.4062L31.0938 21.4844L31.5626 21.5625C32.3438 22.5 32.7344 23.6719 32.6563 24.8437C32.5782 26.0156 32.0313 27.1094 31.0938 27.8906C30.7813 28.2031 30.7032 28.75 31.0157 29.1406C31.3282 29.4531 31.7969 29.5312 32.1876 29.2187C32.7344 28.75 33.2032 28.2031 33.5157 27.5781H33.5938C34.9219 27.4219 36.2501 27.0312 37.422 26.4062C37.5782 26.25 37.7345 26.0937 37.8126 25.8594C37.8907 25.625 37.8126 25.3906 37.6563 25.2344C37.3438 24.8437 36.8751 24.7656 36.4844 25C35.7813 25.3906 35.0782 25.7031 34.2188 25.7812C34.2969 25.5469 34.3751 25.2344 34.3751 25C34.4532 23.9844 34.297 22.9687 33.9063 22.1094C34.5313 22.1875 35.1563 22.2656 35.7813 22.2656C36.3282 22.2656 36.8751 22.1875 37.422 22.1094C38.4376 23.3594 39.7657 24.2187 41.3282 24.6094C43.3595 25.625 45.2345 26.9531 45.2345 29.1406C45.2345 29.4531 45.3907 29.8437 45.6251 30C45.9376 30.1562 46.25 30.1562 46.5625 30C46.875 29.8437 47.0313 29.4531 46.9532 29.1406C46.9532 27.4219 46.172 25.8594 44.8438 24.8437C45.9376 24.7656 46.8751 24.2187 47.5782 23.4375C47.8907 23.0469 47.8125 22.5 47.5 22.1875C47.1094 21.875 46.5626 21.9531 46.2501 22.2656C45.8594 22.7344 44.8438 23.125 43.3594 23.0469C41.8751 23.0469 40.3907 22.5 39.2969 21.5625C40.5469 21.0156 41.6407 20.0781 42.3438 18.9063C42.5782 18.5156 42.4219 17.9687 42.0313 17.6562C41.6407 17.4219 41.0938 17.5781 40.8594 17.9687C39.5313 20.3906 36.7188 21.0937 32.2657 20C33.2813 19.1406 33.7501 17.8125 33.5938 16.4844C33.5938 16.1719 33.4376 15.8594 33.1251 15.7031C32.8126 15.5469 32.5001 15.5469 32.1876 15.7812C31.8751 15.9375 31.7969 16.3281 31.7969 16.6406C31.8751 18.6719 30.7813 19.0625 28.9844 19.6094C28.75 19.6875 28.4375 19.7656 28.2032 19.8437C27.7344 18.75 26.7188 17.8906 25.5469 17.5781C25.2344 17.5 24.9219 17.5781 24.6875 17.8125C24.4532 18.0469 24.3751 18.3594 24.4532 18.75C24.5313 19.0625 24.7657 19.2969 25.1563 19.375C25.7813 19.5312 26.2501 20 26.5626 20.5469V20.625C25.0782 21.25 23.9063 22.4219 23.3595 23.9062C23.2032 24.2187 23.125 24.6094 23.125 25C22.9688 24.8437 22.8125 24.6875 22.7344 24.4531C22.4219 23.8281 22.1876 23.0469 22.1094 22.3437C22.0313 22.0312 21.7969 21.7188 21.5625 21.6406C21.25 21.4844 20.9376 21.5625 20.7032 21.7969C20.4688 22.0312 20.3126 22.3437 20.4688 22.6562C20.6251 23.5937 20.8594 24.4531 21.3282 25.2344C21.7969 26.0156 22.4219 26.6406 23.2813 27.0312C23.3594 28.125 23.75 29.2188 24.2969 30.2344C23.75 30.9375 23.0469 31.4844 22.2657 31.9531C22.0313 32.1094 21.8751 32.4219 21.797 32.7344C21.797 33.0469 21.9532 33.3594 22.2657 33.5156C22.5782 33.6719 22.8907 33.6719 23.125 33.4375C23.9063 32.8906 24.6094 32.3437 25.2344 31.6406C25.7032 32.0312 26.1719 32.3437 26.6407 32.6562C27.4219 33.125 28.0469 33.6719 28.6719 34.375C29.3751 35.2344 29.375 36.875 29.375 38.2812V42.9687H25.7813C25.7813 37.1875 22.9688 36.875 22.6563 36.7187C21.4844 36.4062 18.4376 34.7656 17.7344 31.4844C17.6563 31.3281 17.6563 31.0937 17.6563 30.9375C16.3282 29.0625 16.4063 26.4844 17.8907 24.6875C17.7345 24.1406 17.6563 23.5937 17.6563 23.0469C17.6563 20.5469 19.4532 18.3594 21.9532 17.8906C22.7344 15.7031 24.7657 14.2187 27.0313 14.2969C27.4219 14.2969 27.8907 14.375 28.2813 14.4531C29.2188 13.3594 30.5469 12.7344 32.0313 12.5781C33.5157 12.5 34.9219 12.9687 36.0157 13.9844C37.4219 13.0469 39.1407 12.8125 40.7032 13.2812C42.3438 13.75 43.5938 15 44.1407 16.5625H44.4532C47.422 16.5625 49.7657 18.9062 49.8438 21.875V22.1094C51.6407 23.125 52.6563 25.0781 52.5001 27.1094C51.8751 29.8438 49.4532 31.9531 46.6407 31.875ZM63.2813 40.0781L57.8907 30.7812V30.4687C58.2032 21.875 53.8282 13.8281 46.4063 9.53125C38.9845 5.15625 29.8438 5.15625 22.4219 9.53125C15.0001 13.8281 10.6251 21.875 10.9376 30.4687C10.9376 37.8125 14.2969 44.7656 20.1563 49.2187V68.75H44.8438V59.4531H48.6719C51.1719 59.4531 53.5157 58.5156 55.2344 56.7187C56.9532 55 57.8907 52.5781 57.8907 50.1562V45.4688H61.3282C63.3594 45.3125 65.1563 42.9687 63.2813 40.0781Z" fill="#01E4DB"/>
</svg>
