<svg width="34" height="35" viewBox="0 0 34 35" fill="none" xmlns="http://www.w3.org/2000/svg"><path d="M8.56708 18.1279C4.8788 14.4396 4.8788 8.45974 8.56708 4.77146L8.75789 4.58065C9.39017 3.94838 10.4152 3.94838 11.0476 4.58065L15.2453 8.7784C15.9829 9.51605 15.9829 10.7121 15.2453 11.4497L13.9082 12.7868C13.172 13.5246 13.1725 14.7194 13.9097 15.4566L19.2522 20.7992C19.9899 21.5368 21.1859 21.5368 21.9236 20.7992L23.2592 19.4636C23.9968 18.7259 25.1928 18.7259 25.9305 19.4636L30.1283 23.6613C30.7605 24.2936 30.7605 25.3188 30.1283 25.951L29.9374 26.1418C26.2491 29.8301 20.2692 29.8301 16.581 26.1418L8.56708 18.1279Z" stroke="#01E4DB" stroke-width="1.5"/></svg>