<svg xmlns="http://www.w3.org/2000/svg" xmlns:xlink="http://www.w3.org/1999/xlink"><defs><clipPath id="clip0_189_468"><rect width="36" height="36" fill="white" transform="translate(0 0.602539)"/></clipPath><clipPath id="clip0_3024_3206"><rect width="48" height="48" fill="white"/></clipPath></defs><symbol id="address" viewBox="0 0 36 37"><g fill="none"><g clip-path="url(#clip0_189_468)"><path d="M27.8219 19.9143L27.1289 19.4062L27.1095 19.4327L27.0921 19.4606L27.8219 19.9143ZM18.46 34.9748L17.7301 35.4285L18.46 36.6025L19.1898 35.4285L18.46 34.9748ZM9.09798 19.9143L9.82778 19.4606L9.81043 19.4327L9.79101 19.4062L9.09798 19.9143ZM28.515 20.4223C30.0268 18.36 30.9199 15.8143 30.9199 13.0625H29.2013C29.2013 15.4367 28.4321 17.6287 27.1289 19.4062L28.515 20.4223ZM19.1898 35.4285L28.5518 20.3679L27.0921 19.4606L17.7301 34.5212L19.1898 35.4285ZM8.36818 20.3679L17.7301 35.4285L19.1898 34.5212L9.82778 19.4606L8.36818 20.3679ZM6 13.0625C6 15.8143 6.89307 18.36 8.40496 20.4223L9.79101 19.4062C8.48788 17.6287 7.71862 15.4367 7.71862 13.0625H6ZM18.46 0.602539C11.5785 0.602539 6 6.18105 6 13.0625H7.71862C7.71862 7.13022 12.5277 2.32115 18.46 2.32115V0.602539ZM30.9199 13.0625C30.9199 6.18105 25.3414 0.602539 18.46 0.602539V2.32115C24.3923 2.32115 29.2013 7.13022 29.2013 13.0625H30.9199ZM22.3268 13.0625C22.3268 15.1981 20.5956 16.9294 18.46 16.9294V18.648C21.5447 18.648 24.0455 16.1472 24.0455 13.0625H22.3268ZM18.46 9.19561C20.5956 9.19561 22.3268 10.9269 22.3268 13.0625H24.0455C24.0455 9.97767 21.5447 7.477 18.46 7.477V9.19561ZM14.5931 13.0625C14.5931 10.9269 16.3243 9.19561 18.46 9.19561V7.477C15.3751 7.477 12.8745 9.97767 12.8745 13.0625H14.5931ZM18.46 16.9294C16.3243 16.9294 14.5931 15.1981 14.5931 13.0625H12.8745C12.8745 16.1472 15.3751 18.648 18.46 18.648V16.9294Z" fill="#01E4DB"/></g></g></symbol><symbol id="analytics" viewBox="0 0 75 75"><g fill="none"><path d="M15.5 35.5L30.5 23.5L45.5 28.5L60.5 13.5" stroke="#01E4DB" stroke-width="3"/><path d="M15.5 40C17.9853 40 20 37.9853 20 35.5C20 33.0147 17.9853 31 15.5 31C13.0147 31 11 33.0147 11 35.5C11 37.9853 13.0147 40 15.5 40Z" fill="black" stroke="#01E4DB" stroke-width="3"/><path d="M30.5 28C32.9853 28 35 25.9853 35 23.5C35 21.0147 32.9853 19 30.5 19C28.0147 19 26 21.0147 26 23.5C26 25.9853 28.0147 28 30.5 28Z" fill="black" stroke="#01E4DB" stroke-width="3"/><path d="M45.5 33C47.9853 33 50 30.9853 50 28.5C50 26.0147 47.9853 24 45.5 24C43.0147 24 41 26.0147 41 28.5C41 30.9853 43.0147 33 45.5 33Z" fill="black" stroke="#01E4DB" stroke-width="3"/><path d="M60.5 18C62.9853 18 65 15.9853 65 13.5C65 11.0147 62.9853 9 60.5 9C58.0147 9 56 11.0147 56 13.5C56 15.9853 58.0147 18 60.5 18Z" fill="black" stroke="#01E4DB" stroke-width="3"/><path d="M19 53H12V68H19V53Z" fill="#01E4DB" stroke="#01E4DB" stroke-width="3" stroke-linejoin="round"/><path d="M49 46H42V68H49V46Z" fill="#01E4DB" stroke="#01E4DB" stroke-width="3" stroke-linejoin="round"/><path d="M34 41H27V68H34V41Z" fill="#01E4DB" stroke="#01E4DB" stroke-width="3" stroke-linejoin="round"/><path d="M64 31H57V68H64V31Z" fill="#01E4DB" stroke="#01E4DB" stroke-width="3" stroke-linejoin="round"/><path d="M9.5 68.5H66.5" stroke="#01E4DB" stroke-width="3" stroke-linecap="round" stroke-linejoin="round"/></g></symbol><symbol id="app" viewBox="0 0 75 75"><g fill="none"><path d="M19.4532 49.1406L17.2656 46.9531L23.9844 40.2344L17.2656 33.5156L19.4532 31.3281L28.3594 40.2344L19.4532 49.1406Z" fill="#01E4DB"/><path d="M9.25 13.2812C7.59314 13.2812 6.25 14.6244 6.25 16.2812V58.7188C6.25 60.3756 7.59315 61.7188 9.25 61.7188H65.75C67.4069 61.7188 68.75 60.3756 68.75 58.7188V16.2812C68.75 14.6244 67.4069 13.2812 65.75 13.2812H9.25ZM60.1562 17.9688C61.0156 17.9688 61.7188 18.6719 61.7188 19.5312C61.7188 20.3906 61.0156 21.0938 60.1562 21.0938C59.2969 21.0938 58.5938 20.3906 58.5938 19.5312C58.5938 18.6719 59.2969 17.9688 60.1562 17.9688ZM54.6875 17.9688C55.5469 17.9688 56.25 18.6719 56.25 19.5312C56.25 20.3906 55.5469 21.0938 54.6875 21.0938C53.8281 21.0938 53.125 20.3906 53.125 19.5312C53.125 18.6719 53.8281 17.9688 54.6875 17.9688ZM49.2188 17.9688C50.0781 17.9688 50.7812 18.6719 50.7812 19.5312C50.7812 20.3906 50.0781 21.0938 49.2188 21.0938C48.3594 21.0938 47.6562 20.3906 47.6562 19.5312C47.6562 18.6719 48.3594 17.9688 49.2188 17.9688ZM64.0625 54.0312C64.0625 55.6881 62.7194 57.0312 61.0625 57.0312H13.9375C12.2806 57.0312 10.9375 55.6881 10.9375 54.0312V25.7812H64.0625V54.0312Z" fill="#01E4DB"/><path d="M29.6875 46.0938H42.1875V49.2188H29.6875V46.0938Z" fill="#01E4DB"/></g></symbol><symbol id="email" viewBox="0 0 36 37"><g fill="none"><path d="M30 9.60254H6C4.89543 9.60254 4 10.498 4 11.6025V25.6025C4 26.7071 4.89543 27.6025 6 27.6025H30C31.1046 27.6025 32 26.7071 32 25.6025V11.6025C32 10.498 31.1046 9.60254 30 9.60254Z" stroke="#01E4DB" stroke-width="1.5"/><path d="M4 27.6025L17.8495 16.3525L32 27.6025" stroke="#01E4DB" stroke-width="1.5" stroke-linejoin="round"/><path d="M17.2257 20.3458L6.18661 11.3787C5.45579 10.785 5.87556 9.60254 6.81711 9.60254H29.1353C30.0821 9.60254 30.4987 10.7961 29.7576 11.3853L18.4785 20.3524C18.1111 20.6445 17.59 20.6417 17.2257 20.3458Z" fill="black" stroke="#01E4DB" stroke-width="1.5" stroke-linejoin="round"/></g></symbol><symbol id="facebook" viewBox="0 0 8 17"><g fill="none"><path d="M8 5.5047H5.2755V3.7403C5.2755 3.0777 5.7202 2.9232 6.0335 2.9232C6.346 2.9232 7.9562 2.9232 7.9562 2.9232V0.0101995L5.3083 0C2.3689 0 1.6999 2.1726 1.6999 3.5629V5.5047H0V8.5063H1.6999C1.6999 12.3585 1.6999 17 1.6999 17H5.2755C5.2755 17 5.2755 12.3128 5.2755 8.5063H7.6882L8 5.5047Z" fill="black"/></g></symbol><symbol id="icon-close" viewBox="0 0 48 48"><g fill="none"><g clip-path="url(#clip0_3024_3206)"><path d="M10.9098 10.4236L38.0627 37.5765" stroke="#01E4DB" stroke-width="6" stroke-linecap="round"/><path d="M10.9098 37.5764L38.0627 10.4235" stroke="#01E4DB" stroke-width="6" stroke-linecap="round"/></g></g></symbol><symbol id="linkedin" viewBox="0 0 16 16"><g fill="none"><path fill-rule="evenodd" clip-rule="evenodd" d="M3.3563 16V5.4186H0.1004V16H3.3563ZM3.3563 1.6679C3.3369 0.721 2.7086 0 1.688 0C0.6671 0 0 0.721 0 1.6679C0 2.5943 0.6477 3.3361 1.6489 3.3361H1.6683C2.7086 3.3361 3.3563 2.5943 3.3563 1.6679ZM8.6681 16V9.9712C8.6681 9.6486 8.6913 9.3259 8.7858 9.0959C9.044 8.4509 9.6317 7.7832 10.6186 7.7832C11.9114 7.7832 12.7222 8.5202 12.7222 9.9712V16H16V9.8099C16 6.4939 14.2378 4.9509 11.8872 4.9509C9.9599 4.9509 9.114 6.0333 8.6442 6.7699L8.6678 5.3547H5.3956C5.4427 6.3677 5.3956 16 5.3956 16H8.6681Z" fill="black"/></g></symbol><symbol id="phone" viewBox="0 0 34 35"><g fill="none"><path d="M8.56708 18.1279C4.8788 14.4396 4.8788 8.45974 8.56708 4.77146L8.75789 4.58065C9.39017 3.94838 10.4152 3.94838 11.0476 4.58065L15.2453 8.7784C15.9829 9.51605 15.9829 10.7121 15.2453 11.4497L13.9082 12.7868C13.172 13.5246 13.1725 14.7194 13.9097 15.4566L19.2522 20.7992C19.9899 21.5368 21.1859 21.5368 21.9236 20.7992L23.2592 19.4636C23.9968 18.7259 25.1928 18.7259 25.9305 19.4636L30.1283 23.6613C30.7605 24.2936 30.7605 25.3188 30.1283 25.951L29.9374 26.1418C26.2491 29.8301 20.2692 29.8301 16.581 26.1418L8.56708 18.1279Z" stroke="#01E4DB" stroke-width="1.5"/></g></symbol><symbol id="to-top" viewBox="0 0 53 29"><g fill="none"><path d="M3 26L26.5 3L50 26" stroke="black" stroke-width="6" stroke-linecap="round" stroke-linejoin="round"/></g></symbol><symbol id="twitter" viewBox="0 0 26 26"><g fill="none"><path d="M15.3023 11.1469L24.3113 0.899902H22.1765L14.354 9.79733L8.10618 0.899902H0.900024L10.3479 14.3543L0.900024 25.0999H3.03507L11.2959 15.704L17.8941 25.0999H25.1002L15.3021 11.1469H15.3027H15.3023ZM12.3781 14.4729L11.4208 13.1332L3.80423 2.47243H7.08333L13.2301 11.0758L14.1874 12.4155L22.1775 23.5986H18.8984L12.3783 14.4731V14.4725L12.3781 14.4729Z" fill="black"/></g></symbol></svg>